<?xml version="1.0" standalone="no"?>
<!DOCTYPE svg PUBLIC "-//W3C//DTD SVG 20010904//EN"
 "http://www.w3.org/TR/2001/REC-SVG-20010904/DTD/svg10.dtd">
<svg version="1.0" xmlns="http://www.w3.org/2000/svg"
 width="1000.000000pt" height="1000.000000pt" viewBox="0 0 1000.000000 1000.000000"
 preserveAspectRatio="xMidYMid meet">

<g transform="translate(0.000000,1000.000000) scale(0.100000,-0.100000)"
fill="#000000" stroke="none">
<path d="M3815 6770 c-244 -28 -444 -104 -624 -240 -285 -215 -424 -517 -408
-884 10 -239 85 -416 251 -594 94 -100 192 -160 441 -267 166 -72 280 -133
365 -195 87 -65 129 -114 168 -197 23 -50 27 -71 27 -148 0 -80 -4 -97 -32
-157 -79 -168 -239 -268 -426 -268 -150 0 -238 36 -467 191 -85 57 -166 112
-181 122 l-26 17 -188 -232 c-104 -128 -195 -241 -204 -252 -15 -17 -13 -21
29 -58 67 -59 271 -193 364 -240 473 -238 982 -233 1357 13 103 68 229 185
300 278 66 88 145 248 169 346 70 276 37 525 -101 758 -95 161 -334 347 -629
489 -290 139 -420 244 -460 374 -23 75 -25 111 -9 186 53 250 337 390 605 298
76 -26 163 -75 307 -171 65 -44 121 -79 126 -79 10 0 381 486 381 499 0 13
-126 115 -220 178 -91 61 -229 131 -328 167 -163 58 -408 86 -587 66z"/>
<path d="M5340 6721 c0 -10 -50 -382 -189 -1396 -55 -401 -134 -982 -176
-1290 -41 -308 -82 -606 -90 -661 -8 -56 -15 -111 -15 -123 l0 -21 502 0 502
0 -36 38 c-20 20 -54 73 -76 117 -51 101 -77 127 -139 132 -43 5 -54 1 -103
-33 -71 -49 -113 -63 -157 -54 -109 25 -183 147 -183 305 0 86 21 132 71 159
32 17 40 18 68 7 17 -8 54 -40 82 -73 64 -73 98 -92 155 -85 60 6 94 35 134
113 65 125 118 134 230 38 69 -59 163 -109 270 -143 59 -19 262 -59 384 -76
63 -9 96 -40 96 -91 0 -20 -8 -48 -19 -62 -41 -59 -92 -182 -76 -182 23 0 178
83 270 145 279 187 466 401 610 700 99 204 151 373 192 620 25 154 25 539 0
675 -77 415 -267 748 -547 957 -69 51 -160 105 -160 94 0 -4 9 -37 21 -74 19
-62 20 -68 4 -101 -14 -29 -29 -40 -88 -65 -175 -72 -410 -117 -531 -100 -50
6 -75 18 -155 73 -118 81 -161 91 -209 51 -17 -14 -46 -53 -64 -86 -26 -49
-41 -65 -79 -85 -65 -32 -109 -31 -179 7 -42 22 -70 47 -107 97 -59 80 -73
111 -73 160 0 59 29 105 72 115 30 7 48 3 109 -23 82 -37 146 -38 192 -4 42
31 51 55 55 147 l4 87 -286 0 c-157 0 -286 -4 -286 -9z m1685 -642 c25 -31 26
-34 18 -113 -14 -144 -9 -203 33 -344 10 -34 -13 -77 -54 -100 -78 -43 -342
-92 -499 -92 -112 0 -153 14 -225 77 -89 79 -116 93 -170 93 -55 0 -94 -28
-134 -96 -38 -64 -74 -87 -140 -86 -40 0 -66 7 -98 26 -136 80 -214 285 -140
367 20 22 97 26 130 6 110 -64 144 -70 204 -38 58 31 74 62 81 157 6 75 10 89
35 115 34 35 45 36 159 3 66 -19 123 -27 215 -31 117 -5 135 -3 290 31 91 20
174 41 185 46 43 19 82 11 110 -21z m-726 -743 c168 -82 294 -98 590 -76 l174
13 24 -27 c30 -35 29 -65 -3 -162 -24 -73 -26 -88 -21 -213 5 -133 4 -134 -22
-163 -34 -38 -105 -56 -246 -63 -137 -6 -279 7 -368 35 -70 22 -89 37 -194
153 -88 96 -136 98 -234 8 -78 -71 -97 -81 -149 -81 -116 0 -227 142 -238 305
-4 65 -2 73 22 102 30 36 70 48 109 34 14 -5 54 -31 89 -56 59 -44 66 -47 114
-43 71 6 134 60 134 115 0 37 21 93 46 123 35 41 82 40 173 -4z m-142 -709
c32 -25 76 -54 98 -65 107 -53 291 -91 544 -111 93 -7 106 -11 122 -32 27 -35
23 -75 -14 -143 -38 -69 -63 -166 -73 -279 -8 -94 -27 -123 -92 -138 -72 -16
-296 13 -450 57 -135 39 -203 92 -257 198 -31 60 -77 106 -117 117 -36 9 -77
-7 -138 -55 -93 -72 -156 -73 -234 -5 -64 56 -97 131 -103 235 -9 138 25 192
113 178 37 -5 52 -15 94 -61 53 -58 86 -73 158 -73 55 0 90 34 133 129 38 84
61 103 116 98 30 -3 57 -17 100 -50z"/>
</g>
</svg>
